<?xml version="1.0" encoding="UTF-8"?><svg id="Ebene_1" xmlns="http://www.w3.org/2000/svg" viewBox="0 0 49.33 49.36"><defs></defs><polygon class="cls-1" points="27.53 10.27 22.63 10.27 12.09 34.88 17.63 34.88 27.53 10.27 27.53 10.27"></polygon><path class="cls-1" d="M27.53,10.27l8.97,21.38c.42.99.24,2.13-.46,2.94l-2.24,2.61-7.2-17.15c-.55-1.31-.67-2.75-.36-4.14l1.29-5.65Z"></path><path class="cls-1" d="M43.82,28.18c-1.67,9.16-9.74,16.11-19.4,15.98-10.13-.13-18.64-8.29-19.19-18.4C4.62,14.53,13.58,5.2,24.68,5.2c9.58,0,17.54,6.95,19.16,16.07h5.28C47.34,8.46,35.7-1.23,22.14.13,10.27,1.32.84,11.11.06,23.01c-.95,14.36,10.47,26.35,24.63,26.35,13.2,0,24-10.41,24.65-23.45h-2.73c-1.35,0-2.53.94-2.77,2.27Z"></path></svg>